<?xml version="1.0" encoding="UTF-8"?><svg id="Layer_1" xmlns="http://www.w3.org/2000/svg" viewBox="0 0 156.89 220.93"><defs><style>.cls-1{fill:#1585ff;}</style></defs><polygon class="cls-1" points="97.73 79.44 97.73 93.75 131.72 93.75 131.72 113.06 97.83 132.37 97.73 132.37 97.73 220.93 156.84 187.22 156.84 185.37 156.84 79.44 97.73 79.44"/><polygon class="cls-1" points="25.21 93.75 59.11 93.75 59.11 78.44 0 78.44 0 184.37 0 186.22 59.11 219.93 59.11 132.37 25.21 113.06 25.21 93.75"/><path class="cls-1" d="M78.44,0C35.12,0,0,35.12,0,78.44c0,36.65,25.14,67.43,59.11,76.04v-22.11l-33.9-19.31v-19.31h106.51v19.31l-33.9,19.31h-.1v22.13c34-8.6,59.16-39.38,59.16-76.05C156.89,35.12,121.77,0,78.44,0Z"/></svg>